<?xml version="1.0" encoding="UTF-8"?>
<svg id="Layer_1" data-name="Layer 1" xmlns="http://www.w3.org/2000/svg" viewBox="0 0 600 600">
  <defs>
    <style>
      .cls-1 {
        letter-spacing: 0em;
      }

      .cls-2 {
        fill: #010101;
      }

      .cls-3 {
        fill: #f7941d;
      }

      .cls-4 {
        fill: #21409a;
      }

      .cls-5 {
        fill: #39b54a;
      }

      .cls-6 {
        font-size: 55px;
      }

      .cls-7 {
        letter-spacing: .01em;
      }

      .cls-8 {
        letter-spacing: 0em;
      }

      .cls-9 {
        letter-spacing: 0em;
      }

      .cls-10 {
        letter-spacing: 0em;
      }

      .cls-11 {
        letter-spacing: 0em;
      }

      .cls-12 {
        opacity: .85;
      }

      .cls-13 {
        opacity: .8;
      }

      .cls-14 {
        letter-spacing: 0em;
      }

      .cls-15 {
        font-size: 45px;
      }

      .cls-16 {
        font-family: Copperplate, Copperplate;
        opacity: .84;
      }

      .cls-16, .cls-17 {
        fill: #231f20;
      }

      .cls-17 {
        font-family: MyriadPro-Regular, 'Myriad Pro';
        font-size: 18px;
      }
    </style>
  </defs>
  <path class="cls-2" d="M343.83,395.74c-.54,.23-.64,.27-.75,.33-.12,.06-.16,.11-.14,.24,0,.03,.03,.09,.05,.14,.02,.04,.02,.06,0,.07-.02,.01-.04-.01-.06-.06-.08-.19-.17-.42-.21-.53-.04-.09-.14-.31-.2-.43-.02-.05-.02-.08,0-.09,.02-.01,.04,0,.06,.04,.02,.04,.03,.06,.05,.1,.06,.09,.13,.09,.26,.04,.12-.04,.22-.08,.76-.32l.5-.21c.52-.22,.69-.42,.76-.65,.06-.22,0-.39-.04-.51-.07-.16-.2-.33-.4-.41-.28-.11-.61,.01-.97,.17l-.45,.19c-.54,.23-.64,.28-.75,.33-.12,.06-.16,.11-.14,.24,0,.03,.03,.09,.04,.13,.02,.04,.02,.06,0,.07-.02,.01-.04-.01-.06-.06-.08-.18-.16-.41-.16-.41-.02-.04-.13-.26-.18-.4-.02-.05-.02-.08,0-.09,.02-.01,.04,0,.06,.05,.02,.04,.03,.06,.06,.1,.06,.09,.13,.09,.26,.04,.12-.04,.22-.09,.76-.32l.38-.16c.4-.17,.83-.31,1.22-.12,.33,.16,.48,.4,.57,.63,.08,.19,.22,.54,.09,.9-.09,.25-.29,.5-.81,.72l-.52,.23Zm-.15-3.97c.29-.07,.38-.14,.39-.23,0-.07,0-.14-.02-.2,0-.04,0-.07,.02-.07,.03,0,.04,.03,.06,.08,.05,.25,.08,.4,.09,.47,0,.03,.06,.21,.1,.41,.01,.05,.02,.08-.02,.09-.02,0-.04-.02-.04-.05-.01-.05-.03-.12-.06-.17-.05-.09-.16-.08-.5-.02l-2.25,.46c-.08,.02-.13,.02-.14-.02,0-.04,.03-.09,.09-.17,.04-.06,.53-.77,.96-1.44,.2-.31,.64-.95,.68-1.02v-.02s-1.7,.41-1.7,.41c-.23,.05-.29,.11-.31,.2-.01,.06,0,.15,.02,.21,.01,.05,0,.06-.02,.07-.03,0-.04-.03-.06-.09-.04-.19-.07-.38-.09-.46,0-.04-.05-.18-.09-.37-.01-.05-.02-.09,.02-.09,.02,0,.04,.02,.05,.06,0,.04,.02,.07,.04,.11,.05,.1,.14,.11,.35,.07l2.4-.48c.08-.02,.12-.01,.13,.02,0,.04-.02,.1-.06,.15-.17,.29-.56,.88-.87,1.36-.32,.5-.7,1.03-.76,1.11h0s1.58-.38,1.58-.38Zm-1.87-3.47c-.59,.04-.7,.04-.82,.06-.13,.02-.2,.06-.21,.15,0,.04,0,.09,0,.14,0,.04,0,.06-.04,.06-.02,0-.03-.03-.04-.09-.01-.15-.01-.39-.02-.5,0-.1-.03-.32-.04-.47,0-.05,0-.08,.03-.08,.03,0,.04,.02,.04,.06,0,.04,0,.07,.02,.12,.03,.1,.09,.13,.23,.13,.12,0,.23,0,.82-.04l.68-.04c.38-.02,.68-.04,.85-.07,.1-.02,.17-.05,.18-.17,0-.05,0-.14,0-.2,0-.04,0-.06,.03-.06,.03,0,.04,.03,.04,.07,.02,.26,.02,.5,.03,.6,0,.09,.03,.33,.04,.49,0,.05,0,.08-.03,.08-.02,0-.03-.01-.03-.06,0-.06-.02-.1-.02-.14-.02-.08-.09-.1-.2-.1-.16,0-.47,.01-.84,.03l-.68,.04Zm-.83-1.74c-.22,.08-.27,.14-.31,.28-.02,.06-.02,.12-.02,.15,0,.04-.01,.05-.04,.04-.03,0-.03-.04-.03-.1,.01-.21,.04-.43,.05-.56,0-.1,0-.28,.02-.48,0-.05,.01-.09,.04-.09,.03,0,.03,.02,.03,.06,0,.06,0,.12,.02,.15,.02,.03,.04,.04,.08,.04,.05,0,.16-.02,.3-.07l1.8-.55v-.02c-.41-.2-1.63-.78-1.88-.89-.05-.02-.11-.04-.14-.04-.03,0-.06,.01-.08,.05-.02,.05-.02,.1-.03,.15,0,.04,0,.07-.04,.06-.03,0-.04-.04-.03-.11,.01-.2,.03-.36,.04-.41,0-.07,0-.25,.01-.37,0-.05,.01-.08,.04-.08,.03,0,.03,.02,.03,.06,0,.04,0,.12,.03,.19,.03,.05,.09,.12,.34,.24,.35,.17,.56,.29,1.02,.53,.55,.28,.96,.49,1.15,.59,.22,.11,.28,.14,.28,.2,0,.05-.06,.07-.24,.13l-2.43,.82Zm1.1-3.43c-.58-.12-.68-.15-.81-.17-.13-.02-.2,0-.25,.12-.01,.03-.03,.09-.04,.15,0,.04-.02,.06-.05,.06-.03,0-.03-.03-.02-.09,.02-.1,.05-.21,.07-.31,.02-.1,.05-.18,.06-.24,.03-.12,.19-.88,.2-.95,0-.07,.01-.14,.01-.17,0-.02,0-.04,0-.06,0-.02,.02-.02,.04-.02,.03,0,.07,.03,.24,.08,.04,.01,.2,.06,.24,.07,.02,0,.04,.02,.03,.05,0,.02-.02,.03-.06,.02-.02,0-.09-.02-.14,0-.07,.01-.13,.04-.19,.22-.02,.06-.11,.46-.13,.54,0,.02,0,.03,.03,.03l.96,.21s.04,0,.05-.02c.02-.08,.11-.52,.12-.61,.01-.09,.01-.15-.02-.2-.02-.03-.04-.05-.04-.07,0-.02,.01-.02,.04-.02,.02,0,.08,.03,.27,.09,.07,.02,.22,.06,.25,.07,.03,0,.07,.02,.06,.05,0,.03-.02,.03-.04,.03-.04,0-.09-.02-.14-.01-.08,0-.15,.04-.2,.18-.02,.07-.11,.45-.13,.54,0,.02,.01,.02,.03,.03l.3,.06c.13,.03,.48,.11,.59,.13,.26,.05,.33,0,.42-.39,.02-.1,.06-.26,.03-.37-.02-.11-.09-.17-.24-.23-.04-.02-.05-.03-.05-.05,0-.03,.04-.02,.07-.02,.09,.02,.34,.1,.41,.14,.09,.05,.09,.08,.05,.23-.06,.28-.11,.49-.15,.65-.04,.16-.07,.28-.1,.39,0,.04-.03,.13-.04,.22-.02,.09-.03,.19-.05,.26-.01,.05-.03,.07-.05,.07-.02,0-.03-.02-.02-.07,.01-.06,.02-.1,.02-.14,0-.08-.08-.12-.19-.15-.15-.05-.45-.12-.8-.19l-.67-.14Zm.72-2.79c-.55-.21-.65-.25-.77-.29-.13-.04-.2-.03-.27,.07-.02,.03-.05,.09-.07,.14-.02,.04-.03,.06-.06,.05-.02-.01-.02-.04,0-.09,.07-.19,.17-.41,.2-.49,.05-.12,.14-.4,.19-.51,.09-.23,.2-.46,.41-.61,.11-.07,.35-.15,.59-.05,.27,.1,.47,.31,.63,.79,.53-.17,.95-.29,1.26-.42,.29-.12,.37-.26,.4-.31,.02-.04,.04-.07,.05-.1,.01-.03,.03-.04,.05-.03,.03,.01,.03,.04,.01,.08l-.13,.34c-.08,.2-.13,.29-.22,.36-.14,.12-.37,.2-.72,.29-.26,.07-.57,.14-.64,.16-.03,0-.04,.03-.05,.05l-.13,.31s0,.03,.02,.04l.05,.02c.34,.13,.62,.24,.78,.28,.11,.03,.2,.04,.25-.07,.03-.05,.07-.13,.08-.17,.01-.03,.03-.04,.05-.03,.02,.01,.03,.04,0,.09-.08,.21-.2,.47-.22,.53-.03,.07-.1,.3-.16,.45-.02,.04-.04,.07-.07,.06-.02,0-.02-.02,0-.07,.02-.06,.03-.1,.04-.14,.01-.08-.06-.13-.16-.18-.15-.08-.43-.19-.76-.32l-.64-.25Zm.45-.32s.06,.01,.08,0c.05-.07,.11-.17,.14-.26,.06-.15,.06-.2,.04-.28-.04-.14-.16-.31-.46-.42-.51-.2-.79,.08-.88,.3-.03,.09-.06,.16-.06,.2,0,.03,0,.04,.04,.05l1.1,.43Zm2.29-1.61c-.05,.04-.08,.04-.15,0-.19-.11-.38-.24-.43-.27-.05-.03-.08-.06-.06-.09,.02-.03,.05-.02,.08,0,.04,.02,.12,.05,.19,.07,.29,.07,.5-.08,.62-.29,.17-.3,.05-.57-.13-.67-.17-.09-.35-.13-.73,.02l-.21,.09c-.5,.21-.81,.2-1.08,.05-.37-.21-.46-.67-.2-1.14,.12-.22,.24-.34,.31-.42,.02-.02,.04-.04,.07-.02,.04,.02,.13,.09,.4,.24,.07,.04,.1,.07,.08,.09-.01,.02-.04,.02-.08,0-.03-.02-.14-.06-.27-.04-.09,.02-.25,.06-.37,.27-.14,.25-.08,.48,.12,.6,.16,.09,.32,.08,.69-.08l.12-.05c.54-.24,.85-.25,1.18-.06,.2,.11,.39,.32,.41,.65,.01,.23-.06,.44-.17,.62-.11,.2-.22,.33-.37,.44Zm-.09-3.21c-.48-.35-.56-.41-.67-.48-.11-.07-.19-.08-.25-.02-.04,.03-.07,.07-.09,.1-.02,.03-.04,.05-.07,.03-.02-.01,0-.04,.03-.09,.09-.12,.24-.31,.31-.4,.06-.08,.18-.27,.27-.39,.03-.04,.05-.06,.07-.05,.02,.02,.02,.04,0,.07-.02,.03-.04,.06-.06,.1-.05,.1-.01,.16,.1,.25,.1,.08,.18,.14,.66,.49l.55,.4c.3,.22,.55,.4,.7,.49,.09,.05,.16,.07,.24-.01,.04-.04,.1-.1,.13-.15,.02-.03,.05-.04,.06-.03,.02,.02,.01,.05-.01,.08-.15,.21-.31,.4-.37,.48-.05,.07-.19,.28-.28,.4-.03,.04-.06,.06-.08,.04-.02-.01-.02-.03,.01-.07,.03-.05,.05-.09,.07-.12,.03-.07,0-.13-.09-.2-.12-.11-.37-.29-.67-.51l-.55-.4Zm.96-2.61l-.39,.43c-.15,.17-.2,.25-.18,.35,.02,.07,.04,.11,.05,.14s.02,.05,0,.06c-.02,.02-.04,.01-.07-.02-.05-.04-.25-.34-.27-.37-.03-.04-.04-.07-.02-.08,.02-.02,.08-.02,.15-.09,.09-.07,.19-.18,.28-.27l1.06-1.12c.09-.09,.14-.16,.17-.21,.03-.05,.05-.08,.06-.09,.02-.02,.04,0,.08,.03,.06,.06,.25,.25,.32,.32,.02,.03,.04,.05,.02,.07-.02,.02-.04,.01-.09-.02l-.03-.02c-.08-.06-.23-.06-.47,.18l-.34,.35,1.16,1.09c.26,.24,.48,.46,.62,.56,.09,.06,.16,.11,.26,.03,.04-.03,.11-.09,.15-.13,.03-.03,.05-.04,.06-.02,.02,.02,0,.05-.02,.08-.18,.19-.35,.36-.43,.43-.06,.06-.22,.25-.33,.36-.03,.04-.06,.05-.08,.03-.01-.01-.01-.03,.02-.07,.04-.04,.07-.08,.08-.11,.04-.07,0-.14-.08-.23-.11-.13-.33-.34-.59-.58l-1.16-1.09Zm2.95-.48s-.02,.02,0,.05l.18,.56c.03,.1,.07,.18,.1,.22,.04,.05,.1,.07,.2,0l.05-.04s.05-.03,.06-.01c.02,.02,0,.04-.03,.07-.1,.08-.24,.17-.33,.25-.03,.03-.19,.17-.35,.29-.04,.03-.06,.04-.08,.02-.02-.02,0-.03,.02-.05,.03-.02,.07-.06,.09-.08,.13-.13,.1-.28,.04-.48l-.76-2.51c-.03-.12-.04-.16-.01-.19,.03-.02,.07,0,.15,.04,.21,.11,1.68,.96,2.24,1.27,.33,.18,.45,.15,.53,.12,.05-.03,.1-.06,.14-.09,.02-.02,.04-.03,.06,0,.02,.02,0,.05-.11,.14-.11,.09-.33,.26-.58,.45-.06,.04-.09,.07-.11,.05-.01-.02,0-.03,.02-.06,.02-.02,.02-.07-.03-.09l-.76-.45s-.03,0-.05,0l-.68,.54Zm.5-.65s.01-.02,0-.03l-.87-.53s-.03-.02-.04-.02c0,0,0,.03,0,.04l.32,.97s.02,.02,.03,.01l.56-.45Zm2.02-.02c-.07,0-.09,0-.13-.07-.11-.18-.21-.39-.24-.45-.03-.05-.04-.09-.01-.11,.03-.02,.05,.01,.07,.04,.02,.04,.08,.11,.13,.15,.22,.2,.47,.18,.68,.05,.3-.18,.33-.47,.22-.65-.1-.16-.24-.29-.64-.34l-.23-.03c-.54-.07-.8-.23-.96-.5-.22-.37-.07-.81,.4-1.09,.22-.13,.38-.18,.48-.21,.03-.01,.06-.01,.07,.01,.02,.04,.07,.15,.22,.41,.04,.07,.05,.11,.02,.12-.02,.01-.04,0-.07-.04-.02-.03-.1-.12-.22-.17-.09-.03-.24-.08-.46,.05-.25,.15-.31,.38-.19,.58,.09,.15,.24,.23,.64,.27h.13c.58,.08,.86,.22,1.05,.54,.11,.19,.18,.47,.03,.77-.1,.21-.27,.35-.45,.45-.19,.11-.36,.18-.54,.2Zm20.27-2.82l-.51-.28c-.2-.11-.29-.14-.38-.09-.06,.03-.1,.06-.13,.08-.02,.02-.04,.03-.06,.02-.02-.01-.02-.03,0-.07,.03-.05,.27-.32,.3-.34,.04-.04,.06-.05,.08-.04,.03,.02,.04,.07,.12,.12,.09,.07,.21,.15,.32,.21l1.33,.78c.11,.06,.19,.1,.24,.12,.06,.02,.09,.03,.1,.04,.02,.01,.02,.04-.01,.09-.04,.07-.19,.3-.24,.38-.02,.03-.04,.05-.06,.04-.03-.02-.02-.04,0-.09l.02-.04c.04-.09,0-.24-.28-.42l-.42-.26-.81,1.37c-.18,.31-.34,.57-.4,.73-.04,.1-.07,.19,.02,.26,.04,.03,.11,.08,.16,.11,.04,.02,.05,.04,.04,.06-.01,.02-.05,.02-.08,0-.22-.13-.42-.26-.52-.32-.08-.04-.29-.16-.43-.24-.04-.02-.06-.05-.05-.07,.01-.02,.03-.02,.07,0,.05,.03,.09,.05,.13,.06,.07,.03,.14-.04,.2-.13,.1-.13,.25-.4,.44-.7l.81-1.37Zm1.75,2.21c.38-.45,.45-.53,.53-.63,.08-.11,.1-.17,.02-.28-.02-.02-.06-.07-.11-.11-.03-.03-.04-.05-.03-.07,.02-.02,.04,0,.09,.03,.16,.13,.33,.3,.42,.38,.07,.06,.26,.21,.37,.3,.04,.04,.06,.06,.04,.08-.02,.02-.04,.01-.07-.01-.03-.03-.05-.04-.09-.06-.09-.05-.16-.02-.25,.07-.09,.09-.16,.17-.54,.62l-.35,.41c-.37,.43-.43,.68-.39,.92,.04,.22,.16,.35,.26,.44,.13,.11,.32,.21,.54,.19,.3-.02,.54-.28,.8-.58l.32-.37c.38-.45,.45-.53,.53-.63,.08-.11,.1-.17,.02-.28-.02-.02-.06-.07-.1-.1-.03-.03-.05-.05-.03-.07,.02-.02,.04,0,.08,.03,.15,.13,.33,.3,.33,.3,.04,.03,.23,.18,.34,.28,.04,.04,.06,.06,.04,.08-.02,.02-.04,.01-.08-.02-.03-.03-.05-.04-.09-.06-.09-.05-.16-.02-.25,.07-.09,.09-.16,.17-.54,.62l-.27,.31c-.28,.33-.61,.65-1.04,.65-.36,0-.6-.15-.79-.31-.16-.13-.43-.39-.48-.76-.03-.26,.04-.58,.41-1.01l.37-.43Zm2.94,2.77c.46-.37,.54-.44,.64-.52,.1-.09,.13-.15,.07-.27-.01-.03-.05-.08-.09-.13-.03-.03-.04-.06-.01-.07,.02-.02,.04,0,.08,.04,.13,.16,.27,.36,.32,.42,.08,.1,.28,.32,.35,.42,.15,.19,.3,.41,.32,.66,.01,.13-.05,.38-.25,.54-.22,.18-.5,.25-1,.15-.12,.54-.22,.97-.27,1.3-.04,.31,.04,.45,.07,.5,.02,.04,.04,.07,.06,.09,.02,.02,.02,.04,0,.06-.02,.02-.05,0-.08-.03l-.23-.29c-.14-.17-.18-.26-.2-.37-.04-.19,.01-.41,.11-.77,.07-.26,.16-.56,.18-.63,0-.03,0-.05-.02-.07l-.21-.27s-.02-.02-.04,0l-.04,.03c-.28,.23-.52,.42-.63,.54-.08,.08-.13,.15-.07,.25,.03,.05,.08,.12,.11,.16,.02,.02,.02,.04,0,.06-.02,.02-.05,0-.08-.04-.14-.18-.31-.41-.35-.45-.05-.06-.21-.24-.31-.36-.03-.04-.04-.07-.02-.09,.02-.01,.03,0,.06,.03,.04,.04,.07,.08,.1,.1,.06,.05,.14,.01,.24-.05,.14-.09,.38-.28,.66-.5l.53-.43Zm.05,.55s-.04,.04-.03,.07c.03,.08,.09,.18,.15,.25,.1,.12,.14,.15,.22,.17,.14,.04,.35,.01,.6-.19,.43-.35,.32-.73,.18-.91-.06-.07-.11-.13-.14-.15-.02-.02-.04-.01-.06,0l-.92,.74Zm2.01,2.29c.51-.3,.6-.35,.71-.42,.11-.07,.15-.14,.12-.22-.01-.04-.03-.09-.06-.13-.02-.03-.02-.06,0-.07,.02-.01,.04,.01,.07,.06,.07,.13,.19,.34,.25,.44,.05,.08,.18,.27,.25,.4,.02,.04,.03,.07,.02,.09-.03,.02-.04,0-.06-.03-.02-.03-.04-.06-.07-.09-.07-.08-.14-.07-.26-.01-.11,.06-.2,.11-.71,.41l-.59,.35c-.32,.19-.59,.35-.72,.45-.08,.06-.13,.12-.09,.23,.02,.05,.06,.13,.09,.18,.02,.04,.02,.06,0,.07-.02,.01-.05,0-.07-.04-.13-.22-.24-.44-.3-.53-.04-.08-.18-.28-.26-.42-.02-.04-.03-.07,0-.09,.02,0,.03,0,.06,.04,.03,.05,.06,.09,.09,.11,.05,.06,.12,.04,.22,0,.15-.07,.41-.22,.74-.41l.59-.35Zm-.29,2.47c.16-.48,.53-.74,.87-.88,.24-.1,.7-.2,1.16,.01,.34,.16,.63,.44,.85,.98,.09,.22,.13,.36,.18,.53,.04,.14,.05,.27,.09,.38,.01,.04,0,.06-.02,.07-.03,.01-.08,.02-.2,.06-.12,.04-.32,.13-.39,.15-.06,.02-.09,.02-.1,0-.01-.03,.01-.05,.06-.07,.11-.05,.22-.15,.27-.28,.08-.17,.06-.49-.08-.82-.13-.31-.29-.48-.5-.58-.35-.16-.72-.09-1.06,.05-.85,.35-1.01,1.18-.81,1.66,.13,.32,.25,.5,.47,.57,.09,.03,.22,.04,.29,.02,.06-.01,.08-.01,.09,.02,.01,.02-.01,.04-.04,.05-.04,.02-.37,.1-.51,.12-.07,0-.09,0-.14-.05-.12-.12-.26-.38-.35-.61-.2-.49-.27-.95-.12-1.39Zm2.55,2.91c.58-.13,.68-.15,.8-.19,.13-.04,.18-.08,.18-.21,0-.03-.01-.1-.02-.15,0-.04,0-.07,.02-.07,.03,0,.04,.02,.05,.08,.02,.1,.04,.21,.06,.31,.02,.1,.03,.19,.05,.24,.03,.12,.2,.88,.22,.95,.02,.07,.04,.13,.06,.16,0,.02,.02,.04,.03,.06s-.01,.03-.03,.03c-.03,0-.08,0-.25,.02-.04,0-.21,.03-.25,.04-.02,0-.04,0-.05-.03,0-.03,.01-.04,.04-.05,.03,0,.09-.02,.13-.05,.06-.04,.1-.09,.08-.28,0-.07-.09-.46-.11-.54,0-.02-.02-.02-.04-.02l-.96,.22s-.04,.01-.04,.04c.02,.08,.12,.52,.15,.6,.03,.09,.05,.14,.1,.17,.04,.02,.06,.03,.06,.05,0,.02,0,.03-.02,.03-.02,0-.09,0-.28,.03-.08,.01-.23,.04-.26,.04-.03,0-.07,.02-.08-.02,0-.03,0-.04,.03-.04,.04-.01,.09-.02,.13-.05,.07-.04,.12-.1,.1-.24,0-.07-.09-.45-.11-.54,0-.02-.02-.02-.04-.02l-.3,.07c-.13,.03-.48,.1-.59,.13-.26,.06-.3,.14-.22,.53,.02,.1,.06,.26,.13,.35,.07,.09,.16,.12,.32,.11,.04,0,.06,0,.07,.03,0,.03-.02,.04-.06,.05-.09,.02-.35,.05-.43,.04-.11,0-.11-.04-.15-.18-.06-.28-.1-.49-.14-.66-.03-.16-.05-.28-.08-.4,0-.04-.03-.13-.05-.21-.02-.09-.05-.18-.07-.26-.01-.05,0-.08,.02-.08,.02,0,.03,0,.04,.05,.01,.06,.03,.1,.05,.13,.03,.07,.12,.07,.23,.06,.16-.02,.46-.08,.81-.16l.67-.15Zm-.71,3.31c-.3,.02-.4,.07-.43,.15-.02,.07-.02,.14-.02,.2,0,.04,0,.07-.03,.07-.03,0-.04-.03-.04-.09,0-.25,0-.41,0-.48,0-.03-.02-.22-.02-.42,0-.05,0-.09,.03-.09,.02,0,.03,.02,.03,.06,0,.05,0,.12,.02,.17,.04,.1,.15,.11,.49,.1l2.3-.05c.08,0,.13,0,.13,.05,0,.04-.05,.08-.11,.15-.05,.05-.66,.66-1.2,1.25-.25,.27-.8,.82-.85,.88v.02l1.74-.1c.24-.01,.31-.05,.34-.14,.02-.06,.02-.15,.02-.21,0-.05,0-.06,.03-.06,.03,0,.04,.04,.04,.1,0,.2,0,.39,0,.47,0,.04,.02,.19,.02,.38,0,.05,0,.09-.03,.09-.02,0-.04-.02-.04-.07,0-.04,0-.07-.02-.12-.04-.11-.12-.14-.34-.13l-2.45,.04c-.09,0-.12-.01-.12-.05,0-.04,.04-.09,.08-.13,.22-.25,.71-.77,1.1-1.19,.4-.44,.87-.89,.95-.96h0s-1.63,.09-1.63,.09Zm-.52,3.58c.04-.06,.06-.07,.14-.06,.21,.03,.44,.08,.5,.09,.06,.01,.1,.03,.09,.06,0,.04-.04,.03-.07,.03-.05,0-.13,0-.2,0-.3,.04-.43,.26-.47,.49-.05,.35,.16,.55,.37,.58,.19,.03,.37,0,.67-.29l.16-.16c.39-.37,.68-.48,.99-.44,.42,.06,.67,.46,.6,.99-.04,.25-.1,.41-.14,.5-.01,.03-.03,.05-.05,.05-.05,0-.16-.04-.46-.08-.09-.01-.11-.03-.11-.06,0-.03,.03-.04,.07-.03,.03,0,.15,0,.27-.06,.08-.05,.21-.14,.25-.39,.04-.28-.1-.48-.33-.51-.18-.02-.32,.04-.61,.33l-.1,.1c-.42,.41-.71,.54-1.07,.49-.22-.03-.48-.15-.62-.46-.1-.21-.1-.43-.07-.63,.03-.23,.08-.4,.18-.55Zm1.16,3.29c.57,.16,.67,.19,.79,.22,.13,.03,.2,0,.24-.07,.02-.04,.04-.09,.05-.13,.01-.04,.02-.06,.06-.05,.02,0,.02,.04,0,.1-.04,.14-.12,.37-.15,.48-.02,.09-.08,.32-.12,.46-.01,.05-.03,.08-.05,.07-.03,0-.03-.03-.02-.07s.02-.07,.02-.11c.01-.11-.05-.15-.17-.2-.12-.04-.22-.07-.79-.23l-.66-.19c-.36-.1-.66-.19-.82-.22-.1-.02-.18-.01-.23,.1-.02,.05-.05,.13-.07,.19-.01,.04-.03,.06-.05,.05-.03,0-.03-.04-.02-.08,.07-.24,.15-.48,.18-.58,.02-.09,.08-.32,.12-.47,.01-.05,.03-.07,.06-.06,.02,0,.03,.02,.01,.07-.02,.05-.02,.1-.02,.14,0,.08,.05,.12,.15,.16,.15,.06,.45,.15,.81,.25l.66,.19Zm-2.29,1.37s.07-.05,.15-.02c.2,.08,.4,.19,.46,.22,.05,.03,.09,.06,.07,.08-.01,.03-.05,.02-.08,0-.05-.02-.13-.04-.2-.05-.3-.03-.48,.13-.58,.35-.14,.32,.01,.57,.2,.65,.17,.07,.36,.09,.72-.1l.2-.11c.48-.26,.78-.29,1.07-.16,.39,.17,.53,.62,.32,1.11-.1,.23-.2,.37-.27,.45-.02,.03-.04,.04-.06,.03-.05-.02-.14-.08-.42-.2-.08-.03-.1-.06-.09-.09,.01-.02,.04-.02,.08,0,.03,.01,.15,.04,.27,0,.09-.02,.24-.08,.34-.31,.11-.26,.03-.49-.18-.58-.16-.07-.32-.04-.68,.15l-.12,.07c-.51,.29-.82,.34-1.16,.19-.21-.09-.42-.27-.48-.6-.04-.23,.02-.44,.1-.63,.09-.2,.18-.35,.32-.48Zm-27.72,11.77s-.06,0-.12-.02c-.05-.02-.07-.06-.09-.19l-.2-1.3s-.04-.08-.07-.08c-.03,0-.05,.02-.07,.06l-.57,1.15-.57-1.14c-.03-.06-.05-.08-.08-.08-.03,0-.05,.03-.06,.07l-.21,1.37c0,.07-.03,.15-.07,.15-.03,0-.05,0-.06,0-.03,0-.05,.01-.05,.04,0,.03,.03,.04,.06,.04,.07,0,.17,0,.22,0,.04,0,.14,0,.23,0,.03,0,.07,0,.07-.04,0-.03-.03-.04-.05-.04-.02,0-.04,0-.07,0-.04,0-.05-.02-.05-.05,0-.03,0-.06,0-.1l.1-.77c.07,.15,.18,.37,.2,.41,.02,.06,.2,.38,.25,.48,.04,.06,.06,.11,.1,.12,.04,0,.05-.03,.1-.13l.45-.9,.11,.86s0,.03,0,.04c0,.02,0,.02,0,.02-.02,0-.03,.02-.04,.04,0,.03,.03,.04,.08,.04,.09,0,.4,.02,.45,.02,.03,0,.07,0,.07-.04,0-.03-.04-.04-.06-.04Zm1.77-1.3c-.24-.25-.62-.24-.89-.24-.13,0-.29,0-.35,0-.06,0-.2,0-.31,0-.03,0-.06,0-.07,.04,0,.03,.03,.04,.05,.04,.03,0,.07,0,.08,0,.07,.02,.07,.03,.08,.1,0,.07,0,.12,0,.45v.37c0,.2,0,.36-.01,.45,0,.06-.02,.09-.05,.1-.02,0-.04,0-.07,0-.03,0-.05,.02-.05,.04,0,.03,.03,.04,.06,.04,.04,0,.1,0,.15,0,.05,0,.1,0,.12,0,.05,0,.13,0,.22,.01,.09,0,.18,.01,.26,.01,.41,0,.64-.15,.74-.25,.13-.12,.24-.33,.24-.6,0-.26-.1-.44-.21-.55Zm-.14,.61c0,.21-.04,.4-.18,.51-.13,.11-.27,.14-.46,.14-.17,0-.25-.05-.27-.08-.01-.01-.02-.09-.02-.14,0-.04,0-.2,0-.42v-.26c0-.16,0-.34,0-.41,0-.02,0-.02,.02-.02,0,0,.09-.02,.13-.01,.17,0,.4,.02,.6,.2,.09,.08,.2,.25,.2,.51Zm2.06,.34s-.04,.03-.04,.06c0,.03-.04,.09-.07,.13-.08,.09-.18,.11-.37,.11-.28,0-.66-.23-.66-.72,0-.2,.04-.4,.2-.53,.09-.08,.21-.11,.4-.11s.34,.05,.41,.12c.05,.05,.08,.12,.08,.18,0,.02,0,.06,.04,.06,.04,0,.04-.04,.05-.07,0-.04,0-.16,0-.23,0-.07,.01-.1,.01-.12,0-.02-.02-.04-.05-.04-.06,0-.13-.02-.22-.04-.1-.01-.18-.02-.32-.02-.32,0-.54,.09-.7,.23-.21,.19-.26,.44-.26,.59,0,.21,.06,.45,.28,.63,.2,.17,.46,.23,.76,.23,.14,0,.31-.01,.4-.05,.04-.01,.06-.03,.07-.07,.02-.07,.05-.25,.05-.28,0-.03-.01-.06-.04-.06Zm1.74,0s-.04,.03-.04,.06c0,.03-.04,.09-.07,.13-.08,.09-.18,.11-.37,.11-.28,0-.66-.23-.66-.72,0-.2,.04-.4,.2-.53,.1-.08,.21-.11,.4-.11,.2,0,.34,.05,.41,.12,.05,.05,.07,.12,.08,.18,0,.02,0,.06,.04,.06,.04,0,.04-.04,.05-.07,0-.04,0-.16,0-.23,0-.07,0-.1,.01-.12,0-.02-.02-.04-.05-.04-.06,0-.13-.02-.22-.04-.1-.01-.18-.02-.32-.02-.33,0-.54,.09-.7,.23-.21,.19-.26,.44-.26,.59,0,.21,.06,.45,.28,.63,.2,.17,.46,.23,.76,.23,.14,0,.31-.01,.4-.05,.04-.01,.06-.03,.07-.07,.02-.07,.05-.25,.05-.28,0-.03-.01-.06-.04-.06Zm1.74,0s-.04,.03-.04,.06c0,.03-.04,.09-.07,.13-.08,.09-.18,.11-.37,.11-.28,0-.66-.23-.66-.72,0-.2,.04-.4,.19-.53,.1-.08,.21-.11,.4-.11s.34,.05,.41,.12c.05,.05,.08,.12,.08,.18,0,.02,0,.06,.04,.06,.04,0,.04-.04,.05-.07,0-.04,0-.16,0-.23,0-.07,0-.1,0-.12,0-.02-.02-.04-.05-.04-.06,0-.13-.02-.22-.04-.1-.01-.18-.02-.32-.02-.33,0-.54,.09-.7,.23-.21,.19-.26,.44-.26,.59,0,.21,.06,.45,.28,.63,.2,.17,.46,.23,.76,.23,.14,0,.31-.01,.4-.05,.04-.01,.06-.03,.07-.07,.02-.07,.05-.25,.05-.28,0-.03-.01-.06-.04-.06Zm8.4,.35s-.05,0-.08-.01c-.04-.02-.07-.03-.11-.08-.05-.06-.39-.6-.48-.73l.35-.48c.07-.09,.11-.15,.15-.15,.03,0,.05-.01,.07-.01,.03,0,.05-.01,.05-.04,0-.03-.03-.04-.06-.04-.08,0-.17,0-.21,0s-.14,0-.23,0c-.03,0-.06,0-.06,.04,0,.03,.03,.04,.04,.04,.02,0,.05,0,.06,0,.02,0,.02,.02,.02,.02,0,.01,0,.04-.02,.07-.03,.06-.2,.3-.28,.41-.08-.14-.17-.28-.26-.43-.01-.02-.02-.05-.02-.05,0,0,0,0,.02-.01s.04,0,.05,0c.02,0,.05-.01,.05-.04,0-.03-.03-.04-.06-.04-.08,0-.22,0-.24,0-.1,0-.28,0-.33,0-.02,0-.06,0-.06,.04,0,.02,.02,.04,.04,.04,.02,0,.05,0,.09,.01,.07,.02,.11,.06,.17,.15l.37,.59-.42,.56c-.07,.1-.11,.13-.16,.15-.03,0-.06,0-.07,0-.02,0-.05,.02-.05,.04s.02,.04,.05,.04h.04s.14,0,.18,0c.05,0,.2,0,.21,0h.04s.06,0,.06-.04c0-.03-.02-.04-.04-.04-.02,0-.03,0-.05,0-.01,0-.02-.01-.02-.02h0s.01-.05,.03-.08l.3-.47c.1,.15,.21,.34,.33,.54,0,0,0,.01,0,.01,0,0,0,0,0,0-.02,0-.04,.02-.04,.04,0,.04,.04,.04,.09,.04,.18,0,.35,0,.4,0h.06s.06,0,.06-.04c0-.03-.02-.04-.05-.04Zm1.85,0s-.05,0-.08-.01c-.04-.02-.07-.03-.11-.08-.05-.06-.39-.6-.48-.73l.35-.48c.07-.09,.11-.15,.15-.15,.03,0,.06-.01,.07-.01,.03,0,.05-.01,.05-.04,0-.03-.03-.04-.06-.04-.08,0-.17,0-.21,0s-.14,0-.23,0c-.03,0-.06,0-.06,.04,0,.03,.03,.04,.04,.04,.02,0,.05,0,.06,0,.02,0,.02,.02,.02,.02,0,.01,0,.04-.02,.07-.03,.06-.2,.3-.28,.41-.08-.14-.17-.28-.26-.43-.01-.02-.02-.05-.02-.05,0,0,0,0,.02-.01,.02,0,.04,0,.05,0,.02,0,.05-.01,.05-.04,0-.03-.03-.04-.06-.04-.08,0-.22,0-.24,0-.1,0-.28,0-.33,0-.03,0-.06,0-.06,.04,0,.02,.02,.04,.04,.04s.05,0,.09,.01c.07,.02,.11,.06,.17,.15l.38,.59-.42,.56c-.07,.1-.1,.13-.16,.15-.03,0-.06,0-.07,0-.03,0-.05,.02-.05,.04,0,.02,.02,.04,.05,.04h.04s.14,0,.18,0c.05,0,.2,0,.21,0h.04s.06,0,.06-.04c0-.03-.02-.04-.04-.04-.02,0-.03,0-.05,0-.01,0-.02,0-.02-.02h0s.01-.05,.03-.08l.3-.47c.1,.15,.21,.34,.33,.54,0,0,0,.01,0,.01,0,0,0,0,0,0-.02,0-.04,.02-.04,.04,0,.04,.04,.04,.09,.04,.18,0,.35,0,.4,0h.06s.06,0,.06-.04c0-.03-.02-.04-.05-.04Zm1.85,0s-.05,0-.08-.01c-.04-.02-.07-.03-.11-.08-.05-.06-.39-.6-.48-.73l.35-.48c.07-.09,.11-.15,.15-.15,.03,0,.06-.01,.07-.01,.02,0,.05-.01,.05-.04,0-.03-.03-.04-.06-.04-.08,0-.17,0-.21,0s-.14,0-.23,0c-.03,0-.06,0-.06,.04,0,.03,.03,.04,.04,.04,.02,0,.05,0,.06,0,.02,0,.03,.02,.02,.02,0,.01,0,.04-.02,.07-.03,.06-.2,.3-.28,.41-.08-.14-.17-.28-.26-.43-.01-.02-.02-.05-.02-.05,0,0,0,0,.02-.01,.02,0,.04,0,.05,0,.02,0,.05-.01,.05-.04,0-.03-.03-.04-.06-.04-.08,0-.22,0-.24,0-.1,0-.28,0-.33,0-.03,0-.06,0-.06,.04,0,.02,.02,.04,.04,.04s.05,0,.09,.01c.07,.02,.11,.06,.16,.15l.38,.59-.42,.56c-.07,.1-.1,.13-.16,.15-.03,0-.06,0-.07,0-.02,0-.05,.02-.05,.04s.02,.04,.05,.04h.04s.14,0,.18,0c.05,0,.2,0,.21,0h.04s.06,0,.06-.04c0-.03-.02-.04-.04-.04-.02,0-.03,0-.05,0-.01,0-.02,0-.02-.02h0s.01-.05,.03-.08l.3-.47c.1,.15,.21,.34,.33,.54,0,0,0,.01,0,.01,0,0,0,0,0,0-.02,0-.04,.02-.04,.04,0,.04,.04,.03,.09,.04,.18,0,.35,0,.4,0h.06s.06,0,.06-.04c0-.03-.02-.04-.04-.04Zm1.14,0s-.08,0-.11,0c-.06-.01-.06-.03-.07-.08,0-.09,0-.26,0-.46v-.37c0-.32,0-.38,0-.45,0-.07,.02-.09,.07-.1,.02,0,.04,0,.06,0s.05-.01,.05-.04c0-.03-.04-.03-.06-.04-.08,0-.23,0-.28,0-.06,0-.21,0-.29,0-.03,0-.06,0-.07,.04,0,.03,.03,.04,.05,.04,.03,0,.05,0,.07,0,.04,.02,.06,.03,.06,.1,0,.07,0,.12,0,.45v.37c0,.2,0,.37-.01,.45,0,.06-.02,.08-.05,.09-.02,0-.04,0-.07,0s-.05,.02-.05,.04c0,.03,.03,.04,.06,.04,.09,0,.24,0,.28,0,.06,0,.21,0,.35,0,.03,0,.06,0,.06-.04,0-.02-.02-.04-.05-.04Zm1.32,0s-.08,0-.11,0c-.06-.01-.06-.03-.07-.08-.01-.09-.01-.26-.01-.46v-.37c0-.32,0-.38,0-.45,0-.07,.02-.09,.07-.1,.02,0,.04,0,.06,0,.02,0,.05-.01,.05-.04,0-.03-.04-.03-.06-.04-.09,0-.23,0-.28,0-.06,0-.21,0-.29,0-.03,0-.06,0-.07,.04,0,.03,.03,.04,.05,.04,.03,0,.05,0,.07,0,.04,.02,.05,.03,.06,.1,0,.07,0,.12,0,.45v.37c0,.2,0,.37-.01,.45,0,.06-.02,.08-.05,.09-.02,0-.04,0-.07,0-.03,0-.05,.02-.05,.04,0,.03,.03,.04,.06,.04,.09,0,.24,0,.28,0,.06,0,.21,0,.35,0,.03,0,.06,0,.06-.04,0-.02-.02-.04-.05-.04Zm1.32,0s-.08,0-.11,0c-.06-.01-.06-.03-.07-.08-.01-.09-.01-.26-.01-.46v-.37c0-.32,0-.38,0-.45,0-.07,.01-.09,.07-.1,.02,0,.04,0,.06,0s.05-.01,.05-.04c0-.03-.04-.03-.06-.04-.08,0-.23,0-.28,0-.06,0-.21,0-.29,0-.03,0-.06,0-.07,.04,0,.03,.03,.04,.05,.04,.03,0,.05,0,.07,0,.04,.02,.06,.03,.06,.1,0,.07,0,.12,0,.45v.37c0,.2,0,.37,0,.45,0,.06-.02,.08-.05,.09-.02,0-.04,0-.07,0s-.05,.02-.05,.04c0,.03,.03,.04,.06,.04,.09,0,.24,0,.28,0,.06,0,.21,0,.35,0,.02,0,.06,0,.06-.04,0-.02-.02-.04-.05-.04Zm-13.06-10.17v-1.23c0-.23-.19-.42-.42-.42s-.42,.19-.42,.42v1.23h.83Zm2.26,0v-1.23c0-.23-.19-.42-.42-.42s-.42,.19-.42,.42v1.23h.83Zm-1.55-24.8c-.24,0-.44,.2-.44,.44s.2,.44,.44,.44,.44-.2,.44-.44c0-.24-.2-.44-.44-.44Zm-.22,12.22h.44v-.95h-.44v.95h0Zm-4.19,23.96c-.24,0-.44,.2-.44,.44s.2,.44,.44,.44,.44-.2,.44-.44-.2-.44-.44-.44Zm-.27-23.94v-1.4c0-.33-.16-.55-.4-.66-.24,.11-.4,.33-.4,.66v1.39h.81Zm0-4.48v-.9c0-.33-.16-.55-.4-.66-.24,.11-.4,.33-.4,.66v.9h.81Zm-.19,9.33v-1.17c0-.12-.1-.22-.22-.22s-.22,.1-.22,.22v1.17h.43Zm0,3.52v-1.17c0-.12-.1-.22-.22-.22s-.22,.1-.22,.22v1.17h.43Zm.13,3.93v-1.04c0-.2-.16-.35-.35-.35s-.35,.16-.35,.35v1.04h.7Zm-.34-29.38c-.24,0-.44,.2-.44,.44s.2,.44,.44,.44,.44-.2,.44-.44c0-.24-.2-.44-.44-.44Zm10.56,17.08v-1.4c0-.33-.16-.55-.4-.66-.24,.11-.4,.33-.4,.66v1.39h.81Zm0-4.48v-.9c0-.33-.16-.55-.4-.66-.24,.11-.4,.33-.4,.66v.9h.81Zm-.19,9.33v-1.17c0-.12-.1-.22-.22-.22s-.22,.1-.22,.22v1.17h.43Zm0,3.52v-1.17c0-.12-.1-.22-.22-.22s-.22,.1-.22,.22v1.17h.43Zm.13,3.93v-1.04c0-.2-.16-.35-.35-.35s-.35,.16-.35,.35v1.04h.7Zm-.34-29.38c-.24,0-.44,.2-.44,.44s.2,.44,.44,.44,.44-.2,.44-.44c0-.24-.2-.44-.44-.44Zm32.3,18.63c-3.98,0-4.88-2.17-4.88-4.58v-8.25h2.43v8.1c0,1.59,.52,2.71,2.62,2.71,1.87,0,2.66-.79,2.66-2.94v-7.87h2.41v7.72c0,3.46-1.91,5.11-5.24,5.11Zm13.54-.21v-5.95c0-.97-.26-1.55-1.14-1.55-1.22,0-2.17,1.38-2.17,3.01v4.49h-2.39v-9.29h2.26c0,.43-.04,1.16-.13,1.65l.02,.02c.56-1.1,1.65-1.87,3.16-1.87,2.09,0,2.77,1.35,2.77,2.97v6.53h-2.37Zm6.17-10.49c-.82,0-1.48-.65-1.48-1.46s.65-1.44,1.48-1.44,1.49,.64,1.49,1.44c0,.8-.67,1.46-1.49,1.46Zm-1.2,10.49v-9.29h2.39v9.29h-2.39Zm9.61,0h-2.43l-3.44-9.29h2.62l1.48,4.19c.22,.64,.45,1.38,.62,2.06h.04c.15-.64,.34-1.35,.56-1.98l1.5-4.26h2.54l-3.48,9.29Zm12.02-4.26h-5.76c-.02,1.74,.84,2.58,2.56,2.58,.92,0,1.91-.21,2.71-.58l.22,1.85c-.99,.39-2.17,.6-3.33,.6-2.96,0-4.6-1.48-4.6-4.75,0-2.84,1.57-4.94,4.36-4.94s3.91,1.85,3.91,4.15c0,.32-.02,.69-.07,1.09Zm-3.91-3.48c-.99,0-1.68,.73-1.81,1.85h3.42c.04-1.16-.6-1.85-1.61-1.85Zm10.96,.6c-1.72-.36-2.58,.77-2.58,3.35v3.8h-2.4v-9.29h2.26c0,.47-.06,1.22-.17,1.87h.04c.45-1.18,1.35-2.21,2.96-2.08l-.11,2.36Zm3.27,7.33c-.67,0-1.35-.07-1.94-.17l.06-1.96c.58,.15,1.29,.28,2,.28,.92,0,1.51-.37,1.51-.99,0-1.64-3.76-.71-3.76-3.87,0-1.63,1.33-2.97,3.95-2.97,.54,0,1.14,.07,1.7,.17l-.07,1.89c-.52-.15-1.14-.24-1.72-.24-.93,0-1.38,.37-1.38,.95,0,1.52,3.81,.84,3.81,3.85,0,1.83-1.61,3.07-4.16,3.07Zm7.39-10.68c-.82,0-1.48-.65-1.48-1.46s.65-1.44,1.48-1.44,1.49,.64,1.49,1.44c0,.8-.67,1.46-1.49,1.46Zm-1.2,10.49v-9.29h2.4v9.29h-2.4Zm8.45,.19c-2.06,0-2.71-.75-2.71-2.92v-4.71h-1.59v-1.85h1.59v-2.86l2.39-.64v3.5h2.26v1.85h-2.26v4.08c0,1.2,.28,1.53,1.1,1.53,.39,0,.82-.06,1.16-.15v1.93c-.6,.15-1.29,.24-1.94,.24Zm9.21-.19c0-.54,.02-1.08,.09-1.57l-.02-.02c-.45,1.05-1.59,1.78-2.97,1.78-1.68,0-2.66-.95-2.66-2.45,0-2.23,2.21-3.4,5.37-3.4v-.51c0-.97-.47-1.48-1.81-1.48-.84,0-1.97,.28-2.75,.73l-.21-2c.93-.34,2.13-.58,3.33-.58,2.99,0,3.83,1.22,3.83,3.24v3.87c0,.75,.02,1.63,.06,2.39h-2.26Zm-3.29-10.83c-.71,0-1.29-.58-1.29-1.29s.58-1.29,1.29-1.29,1.29,.56,1.29,1.29-.58,1.29-1.29,1.29Zm3.1,6.71c-2.52,0-3.09,.73-3.09,1.48,0,.6,.41,.99,1.1,.99,1.18,0,1.98-1.12,1.98-2.24v-.22h0Zm.67-6.71c-.71,0-1.29-.58-1.29-1.29s.58-1.29,1.29-1.29,1.29,.56,1.29,1.29-.58,1.29-1.29,1.29Zm7.63,11.01c-2.06,0-2.71-.75-2.71-2.92v-4.71h-1.59v-1.85h1.59v-2.86l2.39-.64v3.5h2.26v1.85h-2.26v4.08c0,1.2,.28,1.53,1.1,1.53,.39,0,.82-.06,1.16-.15v1.93c-.6,.15-1.29,.24-1.94,.24Zm-87.79,19.57v-1.87l4.54-7.41c.26-.43,.52-.8,.82-1.2-.45,.02-1.05,.04-2.3,.04h-2.92v-2.19h8.15v1.94l-4.81,7.59c-.19,.3-.35,.58-.58,.88,.32-.04,1.18-.04,2.73-.04h2.73v2.24h-8.38Zm16.11,0c0-.43,.02-1.16,.11-1.65l-.02-.02c-.56,1.1-1.63,1.87-3.16,1.87-2.1,0-2.77-1.35-2.77-2.97v-6.53h2.38v5.95c0,.97,.26,1.55,1.16,1.55,1.22,0,2.15-1.38,2.15-3.01v-4.49h2.4v9.29h-2.24Zm-3.8-10.83c-.71,0-1.29-.58-1.29-1.29s.58-1.29,1.29-1.29,1.29,.56,1.29,1.29c0,.71-.58,1.29-1.29,1.29Zm3.78,0c-.71,0-1.29-.58-1.29-1.29s.58-1.29,1.29-1.29,1.29,.56,1.29,1.29-.58,1.29-1.29,1.29Zm9.82,3.68c-1.72-.36-2.58,.77-2.58,3.35v3.8h-2.4v-9.29h2.26c0,.47-.06,1.22-.17,1.87h.04c.45-1.18,1.35-2.21,2.95-2.08l-.11,2.36Zm3.04-3.35c-.82,0-1.48-.65-1.48-1.46s.65-1.44,1.48-1.44,1.49,.64,1.49,1.44c0,.8-.67,1.46-1.49,1.46Zm-1.2,10.49v-9.29h2.39v9.29h-2.39Zm8.33,.17c-2.58,0-4.19-1.35-4.19-4.51,0-2.9,1.52-5.12,4.81-5.12,.64,0,1.31,.09,1.91,.26l-.24,2.08c-.5-.19-1.09-.34-1.68-.34-1.52,0-2.28,1.12-2.28,2.88,0,1.59,.62,2.67,2.21,2.67,.64,0,1.33-.13,1.83-.39l.19,2.04c-.64,.24-1.56,.43-2.55,.43Zm10.12-.17v-5.95c0-.97-.26-1.55-1.14-1.55-1.22,0-2.17,1.38-2.17,3.01v4.49h-2.39v-13.65h2.39v3.98c0,.56-.04,1.35-.17,1.89l.04,.02c.54-1.05,1.61-1.74,3.05-1.74,2.09,0,2.77,1.35,2.77,2.97v6.53h-2.37Zm6.08-8.81c-1.52,0-1.88-.82-1.88-1.77v-3.08h1.1v3.02c0,.56,.18,.91,.85,.91,.62,0,.86-.26,.86-.97v-2.96h1.09v2.89c0,1.34-.76,1.96-2.02,1.96Zm2.94-.09v-.86l1.53-2.56c.08-.13,.16-.25,.25-.37-.12,0-.29,.01-.75,.01h-.99v-.99h3.08v.9l-1.62,2.6c-.06,.09-.11,.17-.18,.27,.09-.01,.36-.01,.92-.01h.9v1.02h-3.16Zm7.01,0v-1.98h-1.74v1.98h-1.1v-4.76h1.1v1.83h1.74v-1.83h1.1v4.76h-1.1Zm-119.26-7.82c0-13.81,11.19-25,25-25h0c13.81,0,25,11.19,25,25h0c0,13.81-11.19,25-25,25h0c-13.81,0-25-11.19-25-25h0Zm7.76-17.24c-4.41,4.41-7.14,10.51-7.14,17.24h0c0,6.73,2.73,12.83,7.14,17.24h0c4.41,4.41,10.51,7.14,17.24,7.14h0c6.73,0,12.83-2.73,17.24-7.14h0c4.41-4.41,7.14-10.51,7.14-17.24h0c0-6.73-2.73-12.83-7.14-17.24h0c-4.41-4.41-10.51-7.14-17.24-7.14h0c-6.73,0-12.83,2.73-17.24,7.14h0Zm17.62,32.95h.2v-.35h-.48v.78h.28v-.43Zm-.38-39.08c-12.9,0-23.37,10.46-23.37,23.37s10.46,23.37,23.37,23.37,23.37-10.46,23.37-23.37c0-12.9-10.46-23.37-23.37-23.37Zm-2.59,43.19h-1.06v.35h1.06v2.63c-5.3-.59-10.06-3-13.64-6.58-.51-.51-1-1.05-1.47-1.61,.09-.57,.59-1,1.18-1,.66,0,1.2,.54,1.2,1.2v1.15h1.52v-1.15c0-.66,.54-1.2,1.2-1.2s1.2,.54,1.2,1.2v1.15h1.52v-1.15c0-.66,.54-1.2,1.2-1.2s1.2,.54,1.2,1.2v1.15h1.52v-1.15c0-.66,.54-1.2,1.2-1.2s1.2,.54,1.2,1.2v1.15h.96v3.87Zm4.35,3.06c-.58,.05-1.17,.07-1.77,.07s-1.18-.02-1.76-.07l-.43-2.7h.5c-.12-.3-.34-.82-.42-1.03-.13-.34-.03-.56,.19-.65,.22-.09,.47,.04,.54,.32l.22,.82h.32v.53h0v.11h-.76v.35h1.11v-.46h1.34v-.53s.32,0,.32,0l.22-.82c.08-.29,.33-.41,.55-.32,.23,.09,.33,.31,.19,.65-.04,.09-.1,.24-.16,.41l-.3,.72h-.81v.35h1.04l.19-.46h.11l-.43,2.7Zm-2.49-7.73h1.45c.06,.13,.2,.47,.28,.67,.06,.14,.13,.28,.04,.43-.11,.18-.25,.15-.35,.14,0,0-.01,0-.02,0-.1,.28-.37,.48-.68,.48s-.58-.2-.68-.48c0,0-.01,0-.02,0-.1,0-.24,.03-.35-.14-.09-.15-.02-.3,.04-.43,.09-.2,.23-.53,.28-.67Zm-.22-1.51l.46,.67,.48-.9,.48,.9,.46-.67-.18,1.15h-1.51l-.18-1.15Zm.56,3.26c.11,.3,.4,.52,.74,.52,.37,0,.68-.26,.76-.6,.23,.01,.46,.08,.69,.27,.22,.18,.3,.5,.34,.66h-4.27c.03-.16,.12-.47,.34-.66,.47-.39,.95-.27,1.41-.19Zm1.76,1.2c-.16,.61-.71,1.06-1.37,1.06s-1.21-.45-1.37-1.06h2.74Zm14.85-1.88c-3.58,3.58-8.34,5.98-13.64,6.58v-2.63h.97c1.8,0,3.1-.15,3.1-.15,0,0-1.34-.2-3.1-.2h-.97v-3.86h1.16v-1.15c0-.66,.54-1.2,1.2-1.2s1.2,.54,1.2,1.2v1.15h1.52v-1.15c0-.66,.54-1.2,1.2-1.2s1.2,.54,1.2,1.2v1.15h1.52v-1.15c0-.66,.54-1.2,1.2-1.2s1.2,.54,1.2,1.2v1.15h1.52v-1.15c0-.66,.54-1.2,1.2-1.2,.53,0,.97,.34,1.13,.81-.51,.63-1.05,1.24-1.62,1.81Zm1.88-2.13c-.27-.56-.84-.95-1.5-.95-.92,0-1.66,.75-1.66,1.66v.54h-.6v-.54c0-.92-.74-1.66-1.66-1.66s-1.66,.75-1.66,1.66v.54h-.6v-.54c0-.92-.74-1.66-1.66-1.66s-1.66,.75-1.66,1.66v.54h-.6v-.54c0-.92-.75-1.66-1.66-1.66s-1.66,.75-1.66,1.66v.54h-.62c-.19-1.24-1.26-2.2-2.55-2.2s-2.36,.95-2.55,2.2h-.64v-.54c0-.92-.75-1.66-1.66-1.66s-1.66,.75-1.66,1.66v.54h-.6v-.54c0-.92-.74-1.66-1.66-1.66s-1.66,.75-1.66,1.66v.54h-.6v-.54c0-.92-.74-1.66-1.66-1.66s-1.66,.75-1.66,1.66v.54h-.59v-.54c0-.92-.74-1.66-1.66-1.66-.66,0-1.23,.38-1.49,.94-.4-.52-.79-1.06-1.15-1.61h38.53c-.36,.56-.75,1.1-1.16,1.63Zm1.54-2.24h-39.3c-.11-.19-.23-.38-.33-.57h39.97c-.11,.19-.22,.38-.34,.57Zm-23.61-29.5v.19s-.02,.1-.04,.15c-.03,.09-.12,.23-.23,.4-.04,.07-.11,.18-.2,.34-.1-.16-.19-.27-.26-.33-.07-.07-.16-.17-.24-.26-.16-.19-.17-.31-.17-.31h0s0,.11-.17,.31c-.08,.09-.17,.18-.24,.26-.06,.07-.15,.17-.26,.34-.08-.17-.16-.28-.2-.35-.11-.17-.19-.31-.23-.4-.03-.08-.04-.18-.04-.19v-.15h2.25Zm-2.25-.35c.02-.29,.1-.84,.38-1.21,.21-.29,.42-.46,.58-.56,.07-.05,.13-.07,.17-.09,.04,.02,.1,.05,.17,.09,.15,.1,.37,.27,.58,.56,.28,.37,.36,.92,.38,1.21h-2.25Zm2.33,1.29c.06,.09,.13,.22,.2,.37,.1,.24,.13,.48,.13,.65v2.59h-.67v-2.58c0-.18,.03-.42,.13-.66,.08-.18,.15-.29,.21-.37Zm-.7,1.04v2.57h-1.01c0-.71,0-2.57,0-2.57,0-.17,.02-.4,.14-.64,.13-.25,.37-.4,.37-.4h0s.23,.15,.35,.4c.13,.25,.14,.47,.15,.64Zm-1.49-.68c.09,.23,.11,.48,.11,.66v2.58s-.65,0-.65,0v-2.59c0-.17,.02-.41,.12-.65,.07-.15,.14-.28,.2-.37,.07,.11,.15,.21,.22,.37Zm3.03,3.67v.84h-4.09v-.84h4.09Zm0,1.19v3.26h-.99v-1.47c0-.49-.18-.9-.48-1.18-.16-.15-.35-.27-.56-.34-.01,0-.01,0-.01,0,0,0,0,0-.02,0-.21,.07-.4,.19-.56,.34-.3,.28-.48,.69-.48,1.18v1.47h-.99v-3.26h4.09Zm-1.34,1.79v1.47h-1.4v-1.47c0-.57,.28-.96,.7-1.14,.42,.18,.7,.58,.7,1.14Zm1.34,1.82v4.15h-.91v-2.07c0-.49-.18-.91-.49-1.2-.16-.16-.36-.27-.57-.35-.01,0-.08-.02-.08-.02,0,0-.06,.02-.07,.02-.21,.07-.41,.19-.58,.35-.31,.29-.49,.71-.49,1.2v2.07h-.91v-4.15h4.09Zm-1.26,2.08v2.07h-1.56v-2.07c0-.4,.15-.72,.38-.94,.11-.11,.25-.19,.4-.25h0c.15,.06,.29,.14,.4,.25,.23,.22,.38,.54,.38,.94h0Zm1.26,2.42v4.93h-4.09v-4.93h4.09Zm0,5.29v3.22h-4.09v-3.22h4.09Zm0,3.57v5.44h-4.09v-5.44h4.09Zm3.6-13.32v1.47l-.56-.56-.56,.56v-1.47h1.12Zm-1.11-.42l.41-1.76,.17-2.94,.1,2.94,.41,1.76h-1.09Zm.55,1.93l2.61,2.6h-5.21l2.6-2.6Zm2.61,2.96v1.99h-5.23v-1.99h5.23Zm0,2.61v2.32h-1.63v-.58c0-.54-.43-.97-.97-.97s-.97,.44-.97,.97v.58h-1.65v-2.32h5.23Zm-3.58,2.68v2.07h1.94v-2.07h1.63v3.22h-5.23v-3.22h1.65Zm3.58,3.57v5.44h-5.23v-5.44h5.23Zm3.59-23.13v.19s-.02,.1-.04,.15c-.03,.09-.12,.23-.23,.4-.04,.07-.11,.18-.2,.34-.1-.16-.19-.27-.26-.33-.07-.07-.16-.17-.24-.26-.16-.19-.17-.31-.17-.31h0s0,.11-.17,.31c-.08,.09-.17,.18-.24,.26-.06,.07-.15,.17-.26,.34-.08-.17-.16-.28-.2-.35-.11-.17-.19-.31-.23-.4-.03-.09-.04-.18-.04-.19v-.15h2.25Zm-2.25-.35c.02-.29,.1-.84,.38-1.21,.21-.29,.42-.46,.58-.56,.07-.05,.13-.07,.17-.09,.04,.02,.1,.05,.17,.09,.15,.1,.37,.27,.58,.56,.28,.37,.36,.92,.38,1.21h-2.24Zm2.33,1.29c.06,.09,.13,.22,.2,.37,.1,.24,.13,.48,.13,.65v2.59h-.67v-2.58c0-.18,.03-.42,.13-.66,.08-.18,.15-.29,.21-.37Zm-.7,1.04v2.57h-1.01c0-.71,0-2.57,0-2.57,0-.17,.02-.4,.14-.64,.13-.25,.37-.4,.37-.4h0s.23,.15,.35,.4c.13,.25,.14,.47,.14,.64Zm-1.49-.68c.09,.23,.11,.48,.11,.66v2.58s-.66,0-.66,0v-2.59c0-.17,.02-.41,.12-.65,.07-.15,.14-.28,.2-.37,.08,.11,.15,.21,.22,.37Zm3.03,3.67v.84h-4.09v-.84h4.09Zm0,1.19v3.26h-.99v-1.47c0-.49-.18-.9-.48-1.18-.16-.15-.35-.27-.56-.34-.01,0-.01,0-.01,0,0,0,0,0-.02,0-.21,.07-.4,.19-.56,.34-.3,.28-.48,.69-.48,1.18v1.47h-.99v-3.26h4.09Zm-1.34,1.79v1.47h-1.4v-1.47c0-.57,.28-.96,.7-1.14,.42,.18,.7,.58,.7,1.14Zm1.34,1.82v4.15h-.91v-2.07c0-.49-.18-.91-.49-1.2-.16-.16-.36-.27-.57-.35-.01,0-.08-.02-.08-.02,0,0-.06,.02-.07,.02-.21,.07-.41,.19-.58,.35-.31,.29-.49,.71-.49,1.2v2.07h-.91v-4.15h4.09Zm-1.26,2.08v2.07h-1.56v-2.07c0-.4,.15-.72,.38-.94,.11-.11,.25-.19,.4-.25h0c.15,.06,.29,.14,.4,.25,.23,.22,.38,.54,.38,.94h0Zm1.26,2.42v4.93h-4.09v-4.93h4.09Zm0,5.29v3.22h-4.09v-3.22h4.09Zm0,3.57v5.44h-4.09v-5.44h4.09Zm.63,5.44v-24.03h-.52v-2.65c0-.33-.05-.54-.2-.88-.04-.09-.09-.18-.15-.27v-.96s0-.75-.31-1.32c-.34-.62-.99-.95-1.31-1.09-.07-.03-.12-.05-.13-.05l-.05-.02-.07,.02s-.55,.17-1.04,.84c-.45,.62-.46,1.41-.46,1.62,0,.04,0,.06,0,.06v.88c-.06,.09-.14,.22-.23,.41-.14,.34-.15,.65-.15,.83v2.56h-.52v8.77l-1.42-1.42v-2.5l-.48-1.62-.71-5.54h0l-.52,5.31-.48,1.85v2.32l-1.41,1.41v-8.58h-.52v-2.65c0-.33-.05-.54-.2-.88-.04-.09-.09-.18-.15-.27v-.96s0-.75-.31-1.32c-.34-.62-.99-.95-1.31-1.09-.07-.03-.12-.05-.13-.05l-.05-.02-.07,.02s-.55,.17-1.04,.84c-.45,.62-.46,1.41-.46,1.62v.94c-.06,.09-.14,.22-.23,.41-.14,.34-.15,.65-.15,.83v2.56h-.52v24.02h-12.62c-1.77-3.25-2.77-6.97-2.77-10.94,0-6.34,2.57-12.07,6.72-16.23,4.15-4.15,9.89-6.72,16.23-6.72s12.08,2.57,16.23,6.72c4.15,4.15,6.72,9.89,6.72,16.23,0,3.96-1.01,7.68-2.77,10.94h-12.43Z"/>
  <text class="cls-17" transform="translate(101.38 384.29)"><tspan class="cls-10" x="0" y="0">S</tspan><tspan x="8.73" y="0">wiss </tspan><tspan class="cls-7" x="44.26" y="0">I</tspan><tspan x="48.74" y="0">nstitu</tspan><tspan class="cls-8" x="91.91" y="0">t</tspan><tspan x="97.76" y="0">e of </tspan><tspan class="cls-9" x="129.54" y="0">A</tspan><tspan x="140.51" y="0">lle</tspan><tspan class="cls-11" x="158.02" y="0">r</tspan><tspan x="163.76" y="0">gy and </tspan><tspan class="cls-8" x="0" y="21.6">A</tspan><tspan x="10.91" y="21.6">sthma </tspan><tspan class="cls-1" x="61.49" y="21.6">R</tspan><tspan x="71.24" y="21.6">esea</tspan><tspan class="cls-14" x="105.08" y="21.6">r</tspan><tspan x="110.79" y="21.6">ch</tspan></text>
  <g class="cls-13">
    <path class="cls-4" d="M245.01,335.87c-9.04,1.81-17.67-4.55-24.26-9.91-7.05-5.73-14.27-12.4-23.32-14.69-10.05-2.53-19.62,2.09-28.27,6.76-8.94,4.83-17.5,10.37-26.71,14.7-9.83,4.63-21.01,7.91-31.92,5.8-1.32-.26-2.7,.37-3.08,1.75-.34,1.22,.41,2.82,1.75,3.08,21.03,4.06,39.97-8.26,57.39-18.17,4.42-2.51,8.89-5.06,13.58-7.03,4.27-1.8,8.93-3.09,13.6-2.51,8.93,1.11,16.27,8.01,22.94,13.46,8.3,6.78,18.31,13.87,29.63,11.61,1.32-.27,2.09-1.84,1.75-3.08-.38-1.38-1.75-2.01-3.08-1.75h0Z"/>
  </g>
  <g class="cls-13">
    <path class="cls-5" d="M109.87,343.28c8.72-.7,17.4-2.11,25.41-5.77,7.29-3.33,13.45-8.68,18.41-14.92s9.13-13.56,12.5-21.01c3.56-7.86,6.17-16.5,11.47-23.42,2.18-2.85,4.95-5.49,8.27-6.93,1.49-.65,3.41-1.23,5.03-.9,.31,.06,1.17,.49,.25,.03,.2,.1,.41,.2,.61,.31,.71,.4,1.27,.89,1.81,1.5,.84,.94,1.34,1.66,2.15,2.85s1.61,2.48,2.35,3.76c1.58,2.72,3.01,5.53,4.37,8.37,2.41,5.05,4.43,9.92,6.43,15.15,1.06,2.78,1.99,5.62,3.2,8.35,5.18,11.7,15.26,20.47,26.22,26.67,1.98,1.12,4,2.16,6.05,3.14,1.22,.58,2.7,.33,3.42-.9,.64-1.09,.33-2.83-.9-3.42-12.06-5.79-23.45-13.97-29.52-26.01-.25-.49-.48-.98-.71-1.48-.11-.24-.22-.49-.33-.73-.05-.1-.09-.21-.13-.31,.19,.44-.01-.03-.05-.12-.29-.72-.56-1.44-.82-2.17-.36-1-.72-2-1.09-2.99-1.9-5.08-3.96-10.11-6.21-15.05-2.53-5.56-5.27-11.17-8.89-16.11-1.81-2.47-3.94-5-7.09-5.69-3.99-.87-8.5,.96-11.73,3.23-7.15,5.02-11.1,13.02-14.42,20.84s-6.52,15.48-10.98,22.65c-4.02,6.47-8.96,12.62-15.23,17.04-6.99,4.92-15.26,7.31-23.66,8.43-2.06,.28-4.12,.47-6.19,.63-1.35,.11-2.5,1.07-2.5,2.5,0,1.27,1.15,2.61,2.5,2.5h0Z"/>
  </g>
  <text class="cls-16" transform="translate(274.9 240.41) scale(.83 1)"><tspan class="cls-6" x="0" y="0">P</tspan><tspan class="cls-15" x="36.68" y="0">roteomics </tspan><tspan class="cls-6" x="0" y="66">C</tspan><tspan class="cls-15" x="39.71" y="66">entre</tspan></text>
  <g class="cls-12">
    <path class="cls-3" d="M247.44,336.52c-3.75-2.94-7.27-6.03-9.79-10.14-3.25-5.3-5.58-11.23-7.41-17.16-1.2-3.89-2.19-7.85-2.87-11.87-.07-.41-.13-.82-.2-1.23-.04-.25-.11-.79,.04,.33-.05-.4-.12-.79-.2-1.19-.64-3.28-1.36-6.55-1.98-9.84-4.98-26.29-7.77-53.02-14.68-78.92-1.67-6.27-3.41-12.68-5.9-18.68-1.97-4.75-6-10.2-11.92-8.29-2.72,.88-4.68,3.06-6.26,5.34-1.74,2.49-3.2,5.22-4.65,7.89-2.98,5.47-5.61,11.12-8.01,16.86-9.65,23.01-15.29,47.41-23.09,71.06-3.35,10.15-6.93,20.22-12.39,29.45-5.79,9.78-13.46,18.57-22.99,24.86-2.11,1.39-4.29,2.65-6.54,3.79-2.87,1.45-.34,5.77,2.52,4.32,10.31-5.21,19-13.1,25.9-22.3,6.17-8.23,10.66-17.48,14.24-27.09,8.63-23.2,14.11-47.42,22.49-70.7,4.1-11.39,8.95-22.54,15.17-32.95,1.16-1.95,2.48-4.49,4.62-5.54,1.76-.87,3.21,.09,4.34,1.55,1.5,1.95,2.28,4.38,3.07,6.67,1.09,3.15,2.09,6.32,3.03,9.51,7.44,25.42,10.42,51.83,15.02,77.84,.57,3.22,1.16,6.44,1.79,9.65,.3,1.53,.61,3.05,.93,4.58,.1,.46,.19,.91,.29,1.37-.03-.15,.32,1.31,.2,.81-.08-.31,.11,.72,.11,.68,.38,2.69,.94,5.35,1.6,7.98,1.37,5.51,3.21,10.88,5.51,16.08,2.46,5.58,5.45,10.83,9.94,15.04,1.44,1.35,2.99,2.56,4.54,3.78,1.06,.83,2.5,1.03,3.54,0,.87-.87,1.07-2.7,0-3.54h0Z"/>
  </g>
</svg>